<?xml version="1.0" encoding="UTF-8" standalone="no"?>
<!-- Created with Inkscape (http://www.inkscape.org/) -->

<svg
   xmlns:dc="http://purl.org/dc/elements/1.1/"
   xmlns:cc="http://creativecommons.org/ns#"
   xmlns:rdf="http://www.w3.org/1999/02/22-rdf-syntax-ns#"
   xmlns:svg="http://www.w3.org/2000/svg"
   xmlns="http://www.w3.org/2000/svg"
   xmlns:sodipodi="http://sodipodi.sourceforge.net/DTD/sodipodi-0.dtd"
   xmlns:inkscape="http://www.inkscape.org/namespaces/inkscape"
   width="26.458334mm"
   height="26.458332mm"
   viewBox="0 0 26.458334 26.458332"
   version="1.1"
   id="svg8"
   inkscape:version="0.92.4 (5da689c313, 2019-01-14)"
   sodipodi:docname="Icone Takalo.svg">
  <defs
     id="defs2" />
  <sodipodi:namedview
     id="base"
     pagecolor="#ffffff"
     bordercolor="#666666"
     borderopacity="1.0"
     inkscape:pageopacity="0.0"
     inkscape:pageshadow="2"
     inkscape:zoom="1"
     inkscape:cx="12.857129"
     inkscape:cy="-49.999983"
     inkscape:document-units="mm"
     inkscape:current-layer="layer1"
     showgrid="false"
     fit-margin-top="0"
     fit-margin-left="0"
     fit-margin-right="0"
     fit-margin-bottom="0"
     inkscape:window-width="1280"
     inkscape:window-height="898"
     inkscape:window-x="-8"
     inkscape:window-y="-8"
     inkscape:window-maximized="1" />
  <metadata
     id="metadata5">
    <rdf:RDF>
      <cc:Work
         rdf:about="">
        <dc:format>image/svg+xml</dc:format>
        <dc:type
           rdf:resource="http://purl.org/dc/dcmitype/StillImage" />
        <dc:title></dc:title>
      </cc:Work>
    </rdf:RDF>
  </metadata>
  <g
     inkscape:label="Calque 1"
     inkscape:groupmode="layer"
     id="layer1"
     transform="translate(-102.43155,-109.14584)">
    <g
       id="g1179"
       transform="matrix(0.08942311,0,0,0.09681951,105.76334,84.86253)">
      <path
         inkscape:connector-curvature="0"
         id="path947-2-9-45-6-6"
         d="m 111.27431,276.5805 c -2.84034,-0.0221 -5.69407,0.41547 -8.5969,1.31206 -0.99675,0.30785 -7.182241,2.91466 -13.745951,5.79294 -14.32346,6.28105 -62.028846,27.87991 -65.357246,29.59096 -5.99858,3.08368 -9.923069,7.21682 -12.359958,13.01677 -0.43905,1.04498 -1.9875582,6.5038 -3.4411402,12.13052 -3.89959,15.0952 -16.535791,67.31023 -16.91214,69.8841 -0.386691,2.64453 -0.18719,7.11139 0.420129,9.40252 0.57086,2.15363 2.46134,6.00547 3.91862,7.98504 3.623011,4.92152 49.6963092,59.66362 53.5905192,63.67364 5.69368,5.86296 10.91267,8.17572 19.475826,8.63098 2.0373,0.10834 22.75414,0.18465 46.037491,0.17003 l 42.33335,-0.0265 2.64377,-0.72866 c 4.39547,-1.2114 7.8718,-3.10729 11.12334,-6.0663 0.85037,-0.77388 4.77436,-5.09809 8.71937,-9.60923 8.32914,-9.52445 45.21301,-52.99156 46.83176,-55.19043 3.59307,-4.88085 5.23594,-10.65017 4.64881,-16.32355 -0.14624,-1.41309 -1.39348,-7.52174 -2.77191,-13.57436 -2.31781,-10.17701 -14.40704,-60.3943 -15.91789,-66.12102 -0.8837,-3.34945 -2.8402,-7.35564 -4.78113,-9.79009 -3.24726,-4.07298 -5.50674,-5.49298 -18.38751,-11.55589 -15.93254,-7.49935 -66.48765,-30.34373 -68.95391,-31.15831 -2.85012,-0.94137 -5.67701,-1.42328 -8.5173,-1.44539 z"
         style="fill:#072434;fill-opacity:1;stroke-width:0.26458332" />
      <path
         sodipodi:nodetypes="cccsccccccsccscsccccccccccccccsccscccsssscssccscccccccccccccccscccccccsscccscccccscccssccsccccsccccccscccscsccccccscscscscccccscscsscccccccccccccccccsc"
         style="fill:#facf42;fill-opacity:1;stroke-width:0.26458332"
         d="m 65.091069,523.92945 c -10.216136,-0.19409 -12.412956,-0.42418 -16.581866,-1.73656 -4.90958,-1.54559 -9.25737,-4.18957 -13.10862,-7.97175 -2.61223,-2.56531 -42.4540672,-49.51413 -57.202908,-67.40675 -5.15795,-6.25739 -9.958621,-12.2658 -10.668161,-13.35201 -2.173129,-3.3269 -3.661509,-6.89538 -4.473309,-10.7251 -0.426351,-2.01137 -0.41791,-8.45731 0.014,-10.71561 0.684449,-3.57841 17.34754,-71.87925 20.62353,-84.53435 2.06767,-7.98745 3.79016,-14.08903 4.34724,-15.39934 3.0633898,-7.20532 7.4164498,-11.91892 14.6083888,-15.81837 2.77976,-1.50721 66.2478952,-30.24312 82.5499952,-37.37547 16.990071,-7.43334 19.070721,-8.08204 25.929161,-8.08406 4.4925,-0.001 7.39064,0.49898 11.75264,2.02887 4.41463,1.54834 85.21244,38.36254 95.33165,43.43628 8.32968,4.17651 13.82889,10.35044 16.60681,18.64438 0.8492,2.53551 16.17183,65.79823 19.99252,82.5434 1.80875,7.92727 3.42397,15.42821 3.58947,16.66874 0.46355,3.47575 0.16277,8.62408 -0.67283,11.51595 -0.88247,3.0539 -2.88087,7.12183 -4.83473,9.84138 -1.94945,2.71335 -43.63875,51.9278 -56.32417,66.49094 -5.26047,6.03912 -10.5038,11.87572 -11.65188,12.97023 -4.76528,4.54302 -9.30501,6.92067 -16.30032,8.53722 l -2.4558,0.56756 -45.77293,0.0277 c -25.175111,0.0154 -50.059181,-0.0537 -55.297931,-0.1533 z M 159.28051,497.415 c 4.39548,-1.21139 7.87214,-3.10746 11.12369,-6.06647 0.85037,-0.77388 4.77386,-5.09796 8.71887,-9.60914 8.32916,-9.52445 45.21319,-52.99132 46.83191,-55.19019 3.59305,-4.88085 5.23627,-10.65051 4.64916,-16.32389 -0.14623,-1.41309 -1.39372,-7.52141 -2.77214,-13.57403 -2.31781,-10.17701 -14.40713,-60.39453 -15.918,-66.12124 -0.88369,-3.34945 -2.84009,-7.35562 -4.78101,-9.79009 -3.24725,-4.07296 -5.50663,-5.49291 -18.38738,-11.55582 -15.93254,-7.49935 -66.4877,-30.34395 -68.95397,-31.15853 -5.70023,-1.88274 -11.30855,-1.92639 -17.11422,-0.13321 -0.99672,0.30785 -7.182461,2.91468 -13.746151,5.79295 -14.32348,6.28106 -62.028786,27.88013 -65.357196,29.59116 -5.99858,3.08369 -9.923138,7.21673 -12.360017,13.01669 -0.439049,1.04496 -1.9875502,6.50363 -3.4411312,12.13037 -3.899591,15.09521 -16.535641,67.3101 -16.911982,69.88397 -0.386688,2.64453 -0.186978,7.11155 0.420341,9.40268 0.570871,2.15363 2.460861,6.00527 3.918141,7.98485 3.623021,4.92152 49.6967382,59.66365 53.5909482,63.67368 5.69368,5.86295 10.91254,8.17581 19.475696,8.63109 2.03729,0.10832 22.75416,0.18497 46.037511,0.17033 l 42.33333,-0.0266 z M 98.837169,468.76784 c -1.47563,-0.6619 -2.62064,-1.66529 -3.2553,-2.85261 l -0.59288,-1.10916 -0.13229,-46.96357 -0.13229,-46.96354 -0.63513,-1.29029 c -0.71332,-1.44908 -2.25238,-2.68656 -4.21059,-3.38554 -1.10315,-0.39375 -2.97389,-0.44492 -16.98241,-0.46451 -9.96358,-0.014 -16.104496,-0.12245 -16.728196,-0.29567 -1.55664,-0.4323 -3.16464,-1.81182 -3.97546,-3.41063 -1.70375,-3.35948 -0.32909,-7.3198 3.09416,-8.91383 l 1.33762,-0.62288 20.258746,-0.003 c 22.08132,-0.003 21.61311,-0.032 24.323551,1.51669 3.00109,1.71476 5.09482,4.17235 6.23813,7.3221 l 0.64104,1.76605 v 16.11832 16.11834 l -0.78248,0.89117 c -0.51251,0.58375 -0.97999,1.61385 -1.35499,2.98578 -0.62265,2.27798 -1.01441,2.95646 -2.94065,5.09248 -0.69953,0.7757 -1.27188,1.51985 -1.27188,1.65365 0,0.60788 0.95758,0.12554 2.33474,-1.17605 2.98735,-2.8234 3.58738,-2.63979 2.60604,0.79756 -1.02029,3.57375 -1.11356,4.28821 -0.58629,4.49053 0.66328,0.25453 0.85673,-0.0752 1.70822,-2.91123 0.42874,-1.42799 0.85383,-2.67063 0.94467,-2.76146 0.427,-0.42701 0.57264,0.78445 0.45653,3.79807 -0.11254,2.92174 -0.0766,3.30605 0.32357,3.45958 0.80488,0.30888 1.03734,-0.36533 1.23909,-3.59383 0.10916,-1.74689 0.27298,-3.29671 0.36407,-3.44408 0.39743,-0.64305 0.87285,-0.14492 1.44885,1.51802 1.3246,3.82418 1.64614,4.56407 1.98351,4.56407 0.78325,0 0.69573,-1.58426 -0.27126,-4.91065 -0.51307,-1.76482 -0.57387,-4.19533 -0.11871,-4.74378 0.55171,-0.66476 1.24103,-0.4589 2.64822,0.79089 0.79592,0.70689 1.59816,1.19061 1.97458,1.19061 0.59336,0 0.5225,-0.16538 -1.10554,-2.57967 -0.95676,-1.41882 -2.24429,-3.11546 -2.86122,-3.77032 -0.6169,-0.65485 -1.25447,-1.45069 -1.41682,-1.76856 -0.20711,-0.40547 -0.29518,-5.15203 -0.29518,-15.9132 0,-17.35871 -0.0214,-17.15332 2.13295,-20.37959 2.00192,-2.99788 5.49569,-5.4282 8.78519,-6.1111 0.96341,-0.2 7.58411,-0.26792 21.23616,-0.21789 19.76242,0.0724 19.84029,0.0748 20.89468,0.64484 2.03393,1.09954 3.37497,2.96127 3.7015,5.1387 0.35885,2.39298 -1.04207,5.22399 -3.21795,6.50298 l -1.2773,0.75076 -16.54261,0.13229 -16.54257,0.13231 -1.7785,0.87581 c -1.91185,0.94152 -2.81207,1.89494 -3.56187,3.77257 -0.4399,1.10151 -0.4762,3.99827 -0.6005,47.8922 l -0.13229,46.7198 -0.80075,1.29508 c -0.4963,0.80268 -1.29319,1.59956 -2.09591,2.09586 -1.18052,0.72988 -1.49794,0.80074 -3.58563,0.80074 -2.0877,0 -2.40512,-0.0709 -3.58565,-0.80074 -0.80257,-0.49617 -1.59972,-1.29323 -2.09591,-2.09568 l -0.80075,-1.29495 -0.0776,-16.16057 c -0.0427,-8.88828 -0.004,-16.56554 0.0856,-17.06056 0.1055,-0.58149 0.65554,-1.42417 1.55434,-2.38125 0.76508,-0.81467 1.9767,-2.35097 2.69248,-3.41403 0.71575,-1.06299 1.46473,-2.16431 1.66438,-2.44738 0.33068,-0.46882 0.30488,-0.51464 -0.28956,-0.51464 -0.40513,0 -1.22581,0.50165 -2.16434,1.3229 -0.83149,0.72762 -1.60544,1.32293 -1.71995,1.32293 -0.11452,0 -0.4255,-0.24014 -0.6911,-0.53362 -0.66714,-0.7372 -0.58642,-2.50943 0.27019,-5.93055 0.55902,-2.23255 0.63378,-2.87978 0.38617,-3.34251 -0.47305,-0.88384 -0.88679,-0.26434 -2.03183,3.04221 -1.4628,4.22415 -1.8552,4.07041 -2.1681,-0.84945 -0.13876,-2.18171 -0.30294,-3.09688 -0.61081,-3.40472 -0.85804,-0.85808 -1.0499,-0.18726 -0.95974,3.35562 0.0781,3.07009 -0.0421,4.04614 -0.4485,3.63977 -0.0785,-0.0785 -0.53229,-1.37825 -1.00846,-2.88836 -0.70432,-2.23371 -0.9607,-2.74568 -1.37504,-2.74568 -0.7556,0 -0.76377,0.69694 -0.038,3.25279 1.08056,3.80566 1.10619,4.02325 0.47386,4.02325 -0.29968,0 -1.3332,-0.71438 -2.29666,-1.5875 -0.96344,-0.87313 -1.97786,-1.5875 -2.25421,-1.5875 -0.2764,0 -0.50251,0.0519 -0.50251,0.11541 0,0.0635 0.66234,0.86718 1.47185,1.78594 1.78584,2.02687 2.14131,2.67135 2.80511,5.0859 0.29518,1.0736 0.85135,2.29716 1.30011,2.86004 l 0.78428,0.98372 -0.0718,17.02891 -0.0718,17.02884 -0.80074,1.29499 c -0.4962,0.8025 -1.29332,1.59956 -2.09588,2.09573 -1.0984,0.67909 -1.59983,0.81129 -3.30031,0.87004 -1.37163,0.0474 -2.294021,-0.0603 -2.919471,-0.34086 z M 55.301493,346.96833 c -0.5821,-0.26588 -1.55531,-1.0247 -2.16274,-1.68628 -3.30462,-3.59927 -1.51353,-9.43593 3.30645,-10.77467 1.34917,-0.37471 106.959257,-0.37471 108.308417,0 4.81997,1.33874 6.61107,7.1754 3.30645,10.77467 -0.60743,0.66158 -1.58065,1.4204 -2.16273,1.68628 -1.01396,0.46315 -3.33193,0.48342 -55.29793,0.48342 -51.965997,0 -54.283957,-0.0203 -55.297917,-0.48342 z"
         id="path40-4-5-4-0-1-3-1"
         inkscape:connector-curvature="0" />
    </g>
  </g>
</svg>
